<svg xmlns="http://www.w3.org/2000/svg" xmlns:xlink="http://www.w3.org/1999/xlink" width="500" zoomAndPan="magnify" viewBox="0 0 375 374.999991" height="500" preserveAspectRatio="xMidYMid meet" version="1.0"><defs><g/><clipPath id="67549039f6"><path d="M 57.101562 138 L 125 138 L 125 183 L 57.101562 183 Z M 57.101562 138 " clip-rule="nonzero"/></clipPath></defs><rect x="-37.5" width="450" fill="#ffffff" y="-37.499999" height="449.999989" fill-opacity="1"/><rect x="-37.5" width="450" fill="#000000" y="-37.499999" height="449.999989" fill-opacity="1"/><g fill="#ffffff" fill-opacity="1"><g transform="translate(44.739582, 214.235844)"><g><path d="M 23.40625 -3.515625 C 18.75 -13.28125 16.578125 -17.859375 12.96875 -25.96875 L 12.890625 -25.96875 C 10.71875 -20.390625 6.359375 -10.234375 3.40625 -3.546875 C 2.453125 -1.421875 1.34375 -0.390625 0.21875 -0.21875 L 0.21875 0 C 1.203125 -0.109375 2.484375 -0.21875 3.875 -0.21875 C 5 -0.21875 6.53125 -0.109375 7.703125 0 L 7.703125 -0.21875 C 5.46875 -0.46875 4.90625 -1.453125 5.6875 -3.546875 C 6.140625 -4.71875 6.578125 -5.890625 7.03125 -7.0625 C 8.34375 -7.140625 10.046875 -7.171875 11.75 -7.171875 C 13.5 -7.171875 15.34375 -7.140625 16.796875 -7.109375 C 17.359375 -5.75 17.90625 -4.546875 18.296875 -3.484375 C 19.078125 -1.453125 18.109375 -0.421875 15.953125 -0.21875 L 15.953125 0 C 17.6875 -0.140625 20.171875 -0.21875 21.734375 -0.21875 C 23.296875 -0.21875 25.578125 -0.109375 26.78125 0 L 26.78125 -0.21875 C 25.03125 -0.53125 24.359375 -1.484375 23.40625 -3.515625 Z M 11.71875 -8.765625 C 10.546875 -8.765625 8.984375 -8.84375 7.78125 -8.921875 C 9.09375 -12.28125 10.40625 -15.5625 11.609375 -18.46875 C 12.859375 -15.84375 14.5625 -12.25 16.015625 -8.921875 C 14.59375 -8.84375 12.96875 -8.765625 11.71875 -8.765625 Z M 11.71875 -8.765625 "/></g></g></g><g fill="#ffffff" fill-opacity="1"><g transform="translate(71.734477, 214.235844)"><g><path d="M 19 -5.859375 L 18.78125 -5.890625 C 18.078125 -2.59375 16.796875 -1.734375 13.78125 -1.734375 C 11.71875 -1.734375 9.546875 -1.921875 9.40625 -4.46875 C 9.3125 -6.03125 9.265625 -8.8125 9.265625 -12.78125 C 9.265625 -16.90625 9.3125 -18.6875 9.515625 -22.296875 C 9.625 -24.078125 10.375 -24.9375 12.46875 -25.359375 L 12.46875 -25.578125 C 10.6875 -25.46875 8.734375 -25.359375 7.109375 -25.359375 C 5.5 -25.359375 3.546875 -25.46875 1.734375 -25.578125 L 1.734375 -25.359375 C 3.796875 -24.9375 4.609375 -24.078125 4.71875 -22.265625 C 4.9375 -19.078125 4.9375 -16.484375 4.9375 -12.78125 C 4.9375 -8.765625 4.9375 -6.671875 4.765625 -3.375 C 4.65625 -1.3125 3.796875 -0.640625 1.78125 -0.21875 L 1.78125 0 C 4.1875 -0.171875 8.59375 -0.21875 10.796875 -0.21875 C 13.140625 -0.21875 15.984375 -0.171875 19 0.03125 C 18.78125 -1.984375 18.78125 -3.90625 19 -5.859375 Z M 19 -5.859375 "/></g></g></g><g fill="#ffffff" fill-opacity="1"><g transform="translate(93.11728, 214.235844)"><g><path d="M 10.796875 -11.40625 L 10.796875 -11.1875 C 15.875 -11.40625 20.5625 -14.03125 20.5625 -19.078125 C 20.5625 -23.015625 17.515625 -25.578125 11.71875 -25.578125 C 10.015625 -25.578125 8.703125 -25.359375 6.78125 -25.359375 C 5.546875 -25.359375 3.34375 -25.421875 1.78125 -25.578125 L 1.78125 -25.359375 C 3.828125 -24.96875 4.65625 -24.21875 4.765625 -22.15625 C 4.9375 -18.890625 4.9375 -16.265625 4.9375 -12.75 C 4.9375 -9.0625 4.9375 -6.46875 4.71875 -3.265625 C 4.609375 -1.453125 3.796875 -0.609375 1.734375 -0.171875 L 1.734375 0.03125 C 3.546875 -0.078125 5.5 -0.171875 7.109375 -0.171875 C 8.734375 -0.171875 10.6875 -0.078125 12.46875 0.03125 L 12.46875 -0.171875 C 10.375 -0.609375 9.625 -1.453125 9.515625 -3.234375 C 9.3125 -6.859375 9.265625 -8.625 9.265625 -12.75 C 9.265625 -16.265625 9.265625 -18.828125 9.484375 -24.078125 C 10.015625 -24.1875 10.515625 -24.21875 10.9375 -24.21875 C 14.140625 -24.21875 16.015625 -21.59375 16.015625 -18.15625 C 16.015625 -16.015625 15.3125 -11.71875 10.796875 -11.40625 Z M 10.796875 -11.40625 "/></g></g></g><g fill="#ffffff" fill-opacity="1"><g transform="translate(115.210475, 214.235844)"><g><path d="M 30.46875 -25.359375 L 30.46875 -25.578125 C 28.703125 -25.46875 26.703125 -25.359375 25.109375 -25.359375 C 23.46875 -25.359375 21.515625 -25.46875 19.71875 -25.578125 L 19.71875 -25.359375 C 21.765625 -24.9375 22.59375 -24.046875 22.6875 -22.234375 C 22.875 -19.5 22.9375 -17.21875 22.9375 -14.34375 C 20.84375 -14.203125 18.75 -14.140625 16.484375 -14.140625 C 13.921875 -14.140625 11.578125 -14.171875 9.265625 -14.34375 C 9.265625 -17.40625 9.34375 -19.140625 9.515625 -22.234375 C 9.625 -24.046875 10.375 -24.890625 12.46875 -25.359375 L 12.46875 -25.578125 C 10.6875 -25.46875 8.734375 -25.359375 7.109375 -25.359375 C 5.5 -25.359375 3.546875 -25.46875 1.734375 -25.578125 L 1.734375 -25.359375 C 3.796875 -24.9375 4.609375 -24.046875 4.71875 -22.234375 C 4.9375 -19.03125 4.9375 -16.484375 4.9375 -12.78125 C 4.9375 -9.09375 4.9375 -6.53125 4.71875 -3.34375 C 4.609375 -1.53125 3.796875 -0.640625 1.734375 -0.21875 L 1.734375 0 C 3.546875 -0.109375 5.5 -0.21875 7.109375 -0.21875 C 8.734375 -0.21875 10.6875 -0.109375 12.46875 0 L 12.46875 -0.21875 C 10.4375 -0.640625 9.625 -1.53125 9.515625 -3.34375 C 9.3125 -6.8125 9.265625 -8.5625 9.265625 -12.46875 C 11.5 -12.609375 13.703125 -12.640625 15.953125 -12.640625 C 18.328125 -12.640625 20.640625 -12.609375 22.9375 -12.46875 C 22.9375 -8.953125 22.90625 -6.421875 22.6875 -3.34375 C 22.59375 -1.53125 21.765625 -0.640625 19.71875 -0.21875 L 19.71875 0 C 21.515625 -0.109375 23.46875 -0.21875 25.109375 -0.21875 C 26.703125 -0.21875 28.703125 -0.109375 30.46875 0 L 30.46875 -0.21875 C 28.40625 -0.640625 27.625 -1.53125 27.53125 -3.34375 C 27.28125 -6.921875 27.28125 -8.671875 27.28125 -12.78125 C 27.28125 -16.90625 27.28125 -18.640625 27.53125 -22.234375 C 27.625 -24.046875 28.375 -24.890625 30.46875 -25.359375 Z M 30.46875 -25.359375 "/></g></g></g><g fill="#ffffff" fill-opacity="1"><g transform="translate(147.426747, 214.235844)"><g><path d="M 23.40625 -3.515625 C 18.75 -13.28125 16.578125 -17.859375 12.96875 -25.96875 L 12.890625 -25.96875 C 10.71875 -20.390625 6.359375 -10.234375 3.40625 -3.546875 C 2.453125 -1.421875 1.34375 -0.390625 0.21875 -0.21875 L 0.21875 0 C 1.203125 -0.109375 2.484375 -0.21875 3.875 -0.21875 C 5 -0.21875 6.53125 -0.109375 7.703125 0 L 7.703125 -0.21875 C 5.46875 -0.46875 4.90625 -1.453125 5.6875 -3.546875 C 6.140625 -4.71875 6.578125 -5.890625 7.03125 -7.0625 C 8.34375 -7.140625 10.046875 -7.171875 11.75 -7.171875 C 13.5 -7.171875 15.34375 -7.140625 16.796875 -7.109375 C 17.359375 -5.75 17.90625 -4.546875 18.296875 -3.484375 C 19.078125 -1.453125 18.109375 -0.421875 15.953125 -0.21875 L 15.953125 0 C 17.6875 -0.140625 20.171875 -0.21875 21.734375 -0.21875 C 23.296875 -0.21875 25.578125 -0.109375 26.78125 0 L 26.78125 -0.21875 C 25.03125 -0.53125 24.359375 -1.484375 23.40625 -3.515625 Z M 11.71875 -8.765625 C 10.546875 -8.765625 8.984375 -8.84375 7.78125 -8.921875 C 9.09375 -12.28125 10.40625 -15.5625 11.609375 -18.46875 C 12.859375 -15.84375 14.5625 -12.25 16.015625 -8.921875 C 14.59375 -8.84375 12.96875 -8.765625 11.71875 -8.765625 Z M 11.71875 -8.765625 "/></g></g></g><g fill="#ffffff" fill-opacity="1"><g transform="translate(174.421642, 214.235844)"><g/></g></g><g fill="#ffffff" fill-opacity="1"><g transform="translate(182.839789, 214.235844)"><g><path d="M 31.96875 -3.125 C 30.9375 -10.765625 30.1875 -18.046875 29.625 -25.96875 L 29.546875 -25.96875 C 25.921875 -19.46875 22.375 -13.390625 18.078125 -6.46875 C 13.21875 -14 9.65625 -19.859375 6.1875 -25.96875 L 6.109375 -25.96875 C 5.546875 -18.5 4.71875 -10.65625 3.765625 -3.265625 C 3.484375 -1.203125 2.703125 -0.640625 0.640625 -0.171875 L 0.640625 0.03125 C 2.265625 -0.140625 3.40625 -0.171875 4.6875 -0.171875 C 6.078125 -0.171875 7.171875 -0.140625 8.84375 0.03125 L 8.84375 -0.171875 C 6.53125 -0.703125 6.03125 -1.28125 6.140625 -3.296875 C 6.421875 -7.390625 6.78125 -11.078125 7.28125 -15.234375 C 10.578125 -10.015625 13.8125 -4.6875 16.65625 0.390625 L 16.734375 0.390625 C 19.640625 -4.90625 22.625 -10.015625 25.859375 -15.34375 C 26.421875 -11.296875 26.78125 -7.3125 27.03125 -3.15625 C 27.140625 -1.09375 26.359375 -0.640625 24.359375 -0.171875 L 24.359375 0.03125 C 26.0625 -0.171875 28.125 -0.171875 29.65625 -0.171875 C 31.640625 -0.171875 33.53125 -0.140625 35.203125 0.03125 L 35.203125 -0.171875 C 33.09375 -0.640625 32.25 -1.171875 31.96875 -3.125 Z M 31.96875 -3.125 "/></g></g></g><g fill="#ffffff" fill-opacity="1"><g transform="translate(218.679066, 214.235844)"><g><path d="M 15.65625 0.359375 C 23.6875 0.359375 29.234375 -5.390625 29.234375 -12.859375 C 29.234375 -20.453125 23.1875 -25.96875 15.453125 -25.96875 C 7.453125 -25.96875 1.8125 -20.203125 1.8125 -12.71875 C 1.8125 -5.15625 7.890625 0.359375 15.65625 0.359375 Z M 15.953125 -1.09375 C 9.84375 -1.09375 6.5 -7.3125 6.5 -13.671875 C 6.5 -19.8125 9.90625 -24.5 15.171875 -24.5 C 21.28125 -24.5 24.546875 -18.25 24.546875 -11.96875 C 24.546875 -5.6875 21.171875 -1.09375 15.953125 -1.09375 Z M 15.953125 -1.09375 "/></g></g></g><g fill="#ffffff" fill-opacity="1"><g transform="translate(249.758711, 214.235844)"><g><path d="M 31.96875 -3.125 C 30.9375 -10.765625 30.1875 -18.046875 29.625 -25.96875 L 29.546875 -25.96875 C 25.921875 -19.46875 22.375 -13.390625 18.078125 -6.46875 C 13.21875 -14 9.65625 -19.859375 6.1875 -25.96875 L 6.109375 -25.96875 C 5.546875 -18.5 4.71875 -10.65625 3.765625 -3.265625 C 3.484375 -1.203125 2.703125 -0.640625 0.640625 -0.171875 L 0.640625 0.03125 C 2.265625 -0.140625 3.40625 -0.171875 4.6875 -0.171875 C 6.078125 -0.171875 7.171875 -0.140625 8.84375 0.03125 L 8.84375 -0.171875 C 6.53125 -0.703125 6.03125 -1.28125 6.140625 -3.296875 C 6.421875 -7.390625 6.78125 -11.078125 7.28125 -15.234375 C 10.578125 -10.015625 13.8125 -4.6875 16.65625 0.390625 L 16.734375 0.390625 C 19.640625 -4.90625 22.625 -10.015625 25.859375 -15.34375 C 26.421875 -11.296875 26.78125 -7.3125 27.03125 -3.15625 C 27.140625 -1.09375 26.359375 -0.640625 24.359375 -0.171875 L 24.359375 0.03125 C 26.0625 -0.171875 28.125 -0.171875 29.65625 -0.171875 C 31.640625 -0.171875 33.53125 -0.140625 35.203125 0.03125 L 35.203125 -0.171875 C 33.09375 -0.640625 32.25 -1.171875 31.96875 -3.125 Z M 31.96875 -3.125 "/></g></g></g><g fill="#ffffff" fill-opacity="1"><g transform="translate(285.597988, 214.235844)"><g><path d="M 12.46875 -25.359375 L 12.46875 -25.578125 C 10.6875 -25.46875 8.734375 -25.359375 7.109375 -25.359375 C 5.5 -25.359375 3.546875 -25.46875 1.734375 -25.578125 L 1.734375 -25.359375 C 3.796875 -24.9375 4.609375 -24.046875 4.71875 -22.234375 C 4.9375 -19.03125 4.9375 -16.484375 4.9375 -12.78125 C 4.9375 -9.09375 4.9375 -6.53125 4.71875 -3.34375 C 4.609375 -1.53125 3.796875 -0.640625 1.734375 -0.21875 L 1.734375 0 C 3.546875 -0.109375 5.5 -0.21875 7.109375 -0.21875 C 8.734375 -0.21875 10.6875 -0.109375 12.46875 0 L 12.46875 -0.21875 C 10.4375 -0.640625 9.625 -1.53125 9.515625 -3.34375 C 9.3125 -6.921875 9.265625 -8.671875 9.265625 -12.78125 C 9.265625 -16.90625 9.3125 -18.640625 9.515625 -22.234375 C 9.625 -24.046875 10.375 -24.890625 12.46875 -25.359375 Z M 12.46875 -25.359375 "/></g></g></g><g fill="#ffffff" fill-opacity="1"><g transform="translate(299.805828, 214.235844)"><g><path d="M 24.640625 -25.359375 C 23.46875 -25.359375 22.265625 -25.421875 20.453125 -25.578125 L 20.453125 -25.359375 C 22.234375 -24.9375 23.1875 -24.21875 23.296875 -22.203125 C 23.4375 -19.5 23.515625 -17.21875 23.515625 -13.703125 L 23.515625 -8.3125 C 17.296875 -13.953125 11.046875 -19.8125 4.796875 -25.96875 L 4.71875 -25.96875 C 4.765625 -21.875 4.765625 -17.125 4.765625 -13.03125 C 4.765625 -9.09375 4.71875 -6.421875 4.578125 -3.34375 C 4.46875 -1.34375 3.515625 -0.640625 1.734375 -0.21875 L 1.734375 0 C 3.515625 -0.140625 4.578125 -0.21875 5.75 -0.21875 C 6.890625 -0.21875 8.203125 -0.140625 10.015625 0 L 10.015625 -0.21875 C 8.234375 -0.640625 7.28125 -1.34375 7.171875 -3.40625 C 7.03125 -6.46875 6.96875 -9.125 6.96875 -13.0625 L 6.96875 -17.296875 C 13.390625 -11.546875 19.609375 -5.640625 25.671875 0.359375 L 25.75 0.359375 C 25.71875 -4.125 25.71875 -9.0625 25.71875 -13.421875 C 25.71875 -17.046875 25.75 -19.46875 25.890625 -22.234375 C 26 -24.21875 26.953125 -24.9375 28.734375 -25.359375 L 28.734375 -25.578125 C 26.953125 -25.421875 25.8125 -25.359375 24.640625 -25.359375 Z M 24.640625 -25.359375 "/></g></g></g><g clip-path="url(#67549039f6)"><path fill="#ffcb46" d="M 101.328125 171.191406 C 106.855469 160.539062 115.082031 152.3125 124.925781 146.246094 C 118.992188 148 112.519531 147.863281 106.585938 145.976562 C 104.96875 149.75 100.925781 152.851562 96.878906 153.257812 C 99.441406 152.71875 101.867188 150.558594 103.214844 148.269531 C 104.566406 146.109375 105.375 143.546875 106.046875 141.121094 C 102.136719 146.378906 98.902344 150.558594 93.101562 150.832031 C 98.09375 148.539062 101.734375 143.683594 102.945312 138.425781 C 98.765625 142.605469 92.832031 144.492188 87.167969 145.839844 C 81.371094 147.1875 75.4375 148 70.3125 150.964844 C 65.191406 153.796875 60.875 159.324219 61.550781 165.125 C 63.03125 165.257812 64.921875 164.316406 65.730469 162.964844 C 66.402344 161.886719 66.539062 160.945312 67.753906 160 C 68.964844 159.054688 70.71875 158.382812 72.203125 158.113281 L 71.527344 158.246094 C 70.179688 162.695312 61.414062 166.203125 61.414062 166.203125 C 59.796875 166.875 58.71875 168.496094 58.042969 170.113281 C 57.640625 171.328125 57.101562 172.945312 57.371094 174.160156 C 61.011719 172.539062 63.976562 170.652344 68.023438 170.382812 C 71.796875 169.976562 75.574219 170.652344 79.214844 171.867188 C 85.6875 174.15625 91.351562 178.203125 96.742188 182.519531 C 97.957031 178.878906 99.441406 174.96875 101.328125 171.191406 Z M 101.328125 171.191406 " fill-opacity="1" fill-rule="nonzero"/></g><path fill="#ffcb46" d="M 317.890625 133.433594 C 317.890625 133.433594 269.210938 156.222656 188.167969 139.503906 C 188.167969 139.503906 301.84375 154.605469 312.359375 116.175781 C 297.796875 119.949219 282.828125 122.917969 267.996094 125.613281 C 252.625 128.3125 236.980469 130.46875 221.476562 132.492188 C 195.316406 135.863281 168.75 131.546875 143.128906 139.773438 C 126.273438 145.300781 111.710938 156.089844 103.484375 172 C 101.195312 176.585938 99.304688 181.441406 98.226562 186.429688 C 107.9375 172.539062 123.984375 162.5625 140.972656 162.425781 C 153.242188 162.292969 164.976562 166.875 176.300781 171.730469 C 189.246094 177.257812 202.328125 182.921875 216.214844 185.351562 C 226.867188 187.101562 238.464844 186.699219 247.363281 180.628906 C 225.519531 177.394531 205.023438 169.304688 184.125 162.425781 C 174.550781 159.191406 164.976562 156.359375 155.132812 154.066406 C 155.132812 154.066406 169.964844 155.953125 185.605469 160.539062 C 188.84375 161.617188 192.214844 162.832031 195.449219 163.773438 C 196.257812 164.042969 197.203125 164.316406 198.011719 164.585938 C 204.753906 166.472656 211.765625 167.957031 218.777344 169.167969 C 241.296875 173.753906 256.804688 174.023438 267.589844 172.40625 C 275.414062 171.597656 284.71875 169.707031 289.4375 163.101562 C 289.570312 162.964844 289.570312 162.832031 289.570312 162.832031 C 289.300781 162.832031 289.167969 162.832031 288.898438 162.832031 C 287.007812 162.832031 280.671875 162.964844 271.636719 162.695312 C 218.105469 160.671875 169.964844 144.761719 169.964844 144.761719 C 169.964844 144.761719 229.96875 158.246094 246.824219 157.03125 C 247.09375 156.898438 308.046875 159.460938 317.890625 133.433594 Z M 317.890625 133.433594 " fill-opacity="1" fill-rule="nonzero"/><g fill="#ffcb46" fill-opacity="1"><g transform="translate(83.230202, 231.033633)"><g><path d="M 4.109375 0 L 4.109375 -3.15625 L 0.453125 -7.21875 L 1.953125 -7.21875 L 4.765625 -4 L 7.484375 -7.21875 L 8.953125 -7.21875 L 5.3125 -3.171875 L 5.3125 0 Z M 4.109375 0 "/></g></g></g><g fill="#ffcb46" fill-opacity="1"><g transform="translate(92.617538, 231.033633)"><g><path d="M 2.359375 -0.890625 L 7.3125 -0.890625 L 7.3125 -5.046875 L 2.359375 -5.046875 Z M 1.234375 -4.53125 C 1.234375 -5.070312 1.332031 -5.441406 1.53125 -5.640625 C 1.738281 -5.835938 2.125 -5.9375 2.6875 -5.9375 L 6.96875 -5.9375 C 7.53125 -5.9375 7.910156 -5.835938 8.109375 -5.640625 C 8.316406 -5.441406 8.421875 -5.070312 8.421875 -4.53125 L 8.421875 -1.40625 C 8.421875 -0.863281 8.320312 -0.492188 8.125 -0.296875 C 7.925781 -0.0976562 7.539062 0 6.96875 0 L 2.6875 0 C 2.113281 0 1.726562 -0.09375 1.53125 -0.28125 C 1.332031 -0.476562 1.234375 -0.851562 1.234375 -1.40625 Z M 1.234375 -4.53125 "/></g></g></g><g fill="#ffcb46" fill-opacity="1"><g transform="translate(102.271327, 231.033633)"><g><path d="M 2.5 -5.9375 L 2.5 -0.890625 L 6.828125 -0.890625 L 6.828125 -5.9375 L 7.96875 -5.9375 L 7.96875 -1.40625 C 7.96875 -0.851562 7.863281 -0.476562 7.65625 -0.28125 C 7.457031 -0.09375 7.078125 0 6.515625 0 L 2.828125 0 C 2.265625 0 1.878906 -0.0976562 1.671875 -0.296875 C 1.472656 -0.492188 1.375 -0.863281 1.375 -1.40625 L 1.375 -5.9375 Z M 2.5 -5.9375 "/></g></g></g><g fill="#ffcb46" fill-opacity="1"><g transform="translate(111.604006, 231.033633)"><g><path d="M 5.65625 -5.0625 L 2.5 -5.0625 L 2.5 -3.15625 L 5.65625 -3.15625 C 5.90625 -3.15625 6.070312 -3.191406 6.15625 -3.265625 C 6.25 -3.347656 6.296875 -3.507812 6.296875 -3.75 L 6.296875 -4.46875 C 6.296875 -4.6875 6.25 -4.835938 6.15625 -4.921875 C 6.0625 -5.015625 5.894531 -5.0625 5.65625 -5.0625 Z M 1.375 0 L 1.375 -5.9375 L 6.140625 -5.9375 C 6.585938 -5.9375 6.90625 -5.84375 7.09375 -5.65625 C 7.289062 -5.476562 7.390625 -5.1875 7.390625 -4.78125 L 7.390625 -3.453125 C 7.390625 -3.054688 7.289062 -2.769531 7.09375 -2.59375 C 6.90625 -2.414062 6.585938 -2.328125 6.140625 -2.328125 L 5.359375 -2.328125 L 7.984375 0 L 6.484375 0 L 4.109375 -2.328125 L 2.5 -2.328125 L 2.5 0 Z M 1.375 0 "/></g></g></g><g fill="#ffcb46" fill-opacity="1"><g transform="translate(120.17832, 231.033633)"><g/></g></g><g fill="#ffcb46" fill-opacity="1"><g transform="translate(125.411726, 231.033633)"><g><path d="M 8.046875 -6.234375 L 2.921875 -6.234375 L 2.921875 -4.21875 L 7.484375 -4.21875 C 8.117188 -4.21875 8.554688 -4.097656 8.796875 -3.859375 C 9.035156 -3.628906 9.15625 -3.179688 9.15625 -2.515625 L 9.15625 -1.703125 C 9.15625 -1.046875 9.035156 -0.597656 8.796875 -0.359375 C 8.566406 -0.117188 8.128906 0 7.484375 0 L 3.265625 0 C 2.609375 0 2.160156 -0.117188 1.921875 -0.359375 C 1.679688 -0.597656 1.5625 -1.046875 1.5625 -1.703125 L 1.5625 -1.90625 L 2.6875 -2.171875 L 2.6875 -1 L 8.0625 -1 L 8.0625 -3.171875 L 3.53125 -3.171875 C 2.875 -3.171875 2.425781 -3.289062 2.1875 -3.53125 C 1.957031 -3.769531 1.84375 -4.222656 1.84375 -4.890625 L 1.84375 -5.515625 C 1.84375 -6.179688 1.957031 -6.628906 2.1875 -6.859375 C 2.425781 -7.097656 2.875 -7.21875 3.53125 -7.21875 L 7.375 -7.21875 C 8.019531 -7.21875 8.460938 -7.097656 8.703125 -6.859375 C 8.953125 -6.628906 9.078125 -6.222656 9.078125 -5.640625 L 9.078125 -5.484375 L 8.046875 -5.203125 Z M 8.046875 -6.234375 "/></g></g></g><g fill="#ffcb46" fill-opacity="1"><g transform="translate(136.336289, 231.033633)"><g><path d="M 2.5 -5.9375 L 2.5 -0.890625 L 6.828125 -0.890625 L 6.828125 -5.9375 L 7.96875 -5.9375 L 7.96875 -1.40625 C 7.96875 -0.851562 7.863281 -0.476562 7.65625 -0.28125 C 7.457031 -0.09375 7.078125 0 6.515625 0 L 2.828125 0 C 2.265625 0 1.878906 -0.0976562 1.671875 -0.296875 C 1.472656 -0.492188 1.375 -0.863281 1.375 -1.40625 L 1.375 -5.9375 Z M 2.5 -5.9375 "/></g></g></g><g fill="#ffcb46" fill-opacity="1"><g transform="translate(145.668968, 231.033633)"><g><path d="M 6.5 -5.046875 L 2.359375 -5.046875 L 2.359375 -0.890625 L 6.5 -0.890625 L 6.5 -2.3125 L 7.609375 -2.09375 L 7.609375 -1.40625 C 7.609375 -0.863281 7.503906 -0.492188 7.296875 -0.296875 C 7.097656 -0.0976562 6.71875 0 6.15625 0 L 2.671875 0 C 2.109375 0 1.726562 -0.09375 1.53125 -0.28125 C 1.332031 -0.46875 1.234375 -0.84375 1.234375 -1.40625 L 1.234375 -4.53125 C 1.234375 -5.082031 1.332031 -5.453125 1.53125 -5.640625 C 1.726562 -5.835938 2.109375 -5.9375 2.671875 -5.9375 L 6.15625 -5.9375 C 6.71875 -5.9375 7.097656 -5.835938 7.296875 -5.640625 C 7.503906 -5.441406 7.609375 -5.070312 7.609375 -4.53125 L 7.609375 -3.96875 L 6.5 -3.78125 Z M 6.5 -5.046875 "/></g></g></g><g fill="#ffcb46" fill-opacity="1"><g transform="translate(154.291107, 231.033633)"><g><path d="M 6.5 -5.046875 L 2.359375 -5.046875 L 2.359375 -0.890625 L 6.5 -0.890625 L 6.5 -2.3125 L 7.609375 -2.09375 L 7.609375 -1.40625 C 7.609375 -0.863281 7.503906 -0.492188 7.296875 -0.296875 C 7.097656 -0.0976562 6.71875 0 6.15625 0 L 2.671875 0 C 2.109375 0 1.726562 -0.09375 1.53125 -0.28125 C 1.332031 -0.46875 1.234375 -0.84375 1.234375 -1.40625 L 1.234375 -4.53125 C 1.234375 -5.082031 1.332031 -5.453125 1.53125 -5.640625 C 1.726562 -5.835938 2.109375 -5.9375 2.671875 -5.9375 L 6.15625 -5.9375 C 6.71875 -5.9375 7.097656 -5.835938 7.296875 -5.640625 C 7.503906 -5.441406 7.609375 -5.070312 7.609375 -4.53125 L 7.609375 -3.96875 L 6.5 -3.78125 Z M 6.5 -5.046875 "/></g></g></g><g fill="#ffcb46" fill-opacity="1"><g transform="translate(162.913245, 231.033633)"><g><path d="M 1.375 0 L 1.375 -5.9375 L 7.34375 -5.9375 L 7.34375 -5.046875 L 2.5 -5.046875 L 2.5 -3.53125 L 5.421875 -3.53125 L 5.421875 -2.640625 L 2.5 -2.640625 L 2.5 -0.875 L 7.40625 -0.875 L 7.40625 0 Z M 1.375 0 "/></g></g></g><g fill="#ffcb46" fill-opacity="1"><g transform="translate(171.043471, 231.033633)"><g><path d="M 6.609375 -5.046875 L 2.453125 -5.046875 L 2.453125 -3.515625 L 6.25 -3.515625 C 6.8125 -3.515625 7.191406 -3.414062 7.390625 -3.21875 C 7.597656 -3.03125 7.703125 -2.660156 7.703125 -2.109375 L 7.703125 -1.40625 C 7.703125 -0.851562 7.601562 -0.476562 7.40625 -0.28125 C 7.207031 -0.09375 6.820312 0 6.25 0 L 2.640625 0 C 2.078125 0 1.691406 -0.09375 1.484375 -0.28125 C 1.285156 -0.476562 1.1875 -0.851562 1.1875 -1.40625 L 1.1875 -1.5625 L 2.21875 -1.78125 L 2.21875 -0.890625 L 6.6875 -0.890625 L 6.6875 -2.5625 L 2.875 -2.5625 C 2.3125 -2.5625 1.925781 -2.65625 1.71875 -2.84375 C 1.519531 -3.039062 1.421875 -3.414062 1.421875 -3.96875 L 1.421875 -4.53125 C 1.421875 -5.070312 1.519531 -5.441406 1.71875 -5.640625 C 1.925781 -5.835938 2.3125 -5.9375 2.875 -5.9375 L 6.171875 -5.9375 C 6.722656 -5.9375 7.101562 -5.835938 7.3125 -5.640625 C 7.519531 -5.453125 7.625 -5.117188 7.625 -4.640625 L 7.625 -4.484375 L 6.609375 -4.265625 Z M 6.609375 -5.046875 "/></g></g></g><g fill="#ffcb46" fill-opacity="1"><g transform="translate(179.95939, 231.033633)"><g><path d="M 6.609375 -5.046875 L 2.453125 -5.046875 L 2.453125 -3.515625 L 6.25 -3.515625 C 6.8125 -3.515625 7.191406 -3.414062 7.390625 -3.21875 C 7.597656 -3.03125 7.703125 -2.660156 7.703125 -2.109375 L 7.703125 -1.40625 C 7.703125 -0.851562 7.601562 -0.476562 7.40625 -0.28125 C 7.207031 -0.09375 6.820312 0 6.25 0 L 2.640625 0 C 2.078125 0 1.691406 -0.09375 1.484375 -0.28125 C 1.285156 -0.476562 1.1875 -0.851562 1.1875 -1.40625 L 1.1875 -1.5625 L 2.21875 -1.78125 L 2.21875 -0.890625 L 6.6875 -0.890625 L 6.6875 -2.5625 L 2.875 -2.5625 C 2.3125 -2.5625 1.925781 -2.65625 1.71875 -2.84375 C 1.519531 -3.039062 1.421875 -3.414062 1.421875 -3.96875 L 1.421875 -4.53125 C 1.421875 -5.070312 1.519531 -5.441406 1.71875 -5.640625 C 1.925781 -5.835938 2.3125 -5.9375 2.875 -5.9375 L 6.171875 -5.9375 C 6.722656 -5.9375 7.101562 -5.835938 7.3125 -5.640625 C 7.519531 -5.453125 7.625 -5.117188 7.625 -4.640625 L 7.625 -4.484375 L 6.609375 -4.265625 Z M 6.609375 -5.046875 "/></g></g></g><g fill="#ffcb46" fill-opacity="1"><g transform="translate(188.87531, 231.033633)"><g><path d="M 2.96875 -1.53125 C 3.164062 -1.53125 3.285156 -1.503906 3.328125 -1.453125 C 3.367188 -1.410156 3.390625 -1.3125 3.390625 -1.15625 L 3.390625 -0.09375 L 2.40625 1.40625 L 1.796875 1.40625 L 2.625 -0.140625 L 2.140625 -0.140625 C 2.023438 -0.140625 1.945312 -0.164062 1.90625 -0.21875 C 1.863281 -0.269531 1.84375 -0.367188 1.84375 -0.515625 L 1.84375 -1.15625 C 1.84375 -1.320312 1.863281 -1.425781 1.90625 -1.46875 C 1.945312 -1.507812 2.066406 -1.53125 2.265625 -1.53125 Z M 2.96875 -1.53125 "/></g></g></g><g fill="#ffcb46" fill-opacity="1"><g transform="translate(194.108716, 231.033633)"><g/></g></g><g fill="#ffcb46" fill-opacity="1"><g transform="translate(199.342122, 231.033633)"><g><path d="M 2.984375 -1 L 8.96875 -1 L 8.96875 -6.234375 L 2.984375 -6.234375 Z M 1.78125 -5.515625 C 1.78125 -6.171875 1.894531 -6.617188 2.125 -6.859375 C 2.363281 -7.097656 2.8125 -7.21875 3.46875 -7.21875 L 8.46875 -7.21875 C 9.125 -7.21875 9.566406 -7.097656 9.796875 -6.859375 C 10.035156 -6.628906 10.15625 -6.179688 10.15625 -5.515625 L 10.15625 -1.703125 C 10.15625 -1.046875 10.035156 -0.597656 9.796875 -0.359375 C 9.566406 -0.117188 9.125 0 8.46875 0 L 3.46875 0 C 2.8125 0 2.363281 -0.117188 2.125 -0.359375 C 1.894531 -0.597656 1.78125 -1.046875 1.78125 -1.703125 Z M 1.78125 -5.515625 "/></g></g></g><g fill="#ffcb46" fill-opacity="1"><g transform="translate(211.277839, 231.033633)"><g><path d="M 2.5 -5.9375 L 2.5 -0.890625 L 6.828125 -0.890625 L 6.828125 -5.9375 L 7.96875 -5.9375 L 7.96875 -1.40625 C 7.96875 -0.851562 7.863281 -0.476562 7.65625 -0.28125 C 7.457031 -0.09375 7.078125 0 6.515625 0 L 2.828125 0 C 2.265625 0 1.878906 -0.0976562 1.671875 -0.296875 C 1.472656 -0.492188 1.375 -0.863281 1.375 -1.40625 L 1.375 -5.9375 Z M 2.5 -5.9375 "/></g></g></g><g fill="#ffcb46" fill-opacity="1"><g transform="translate(220.610518, 231.033633)"><g><path d="M 5.65625 -5.0625 L 2.5 -5.0625 L 2.5 -3.15625 L 5.65625 -3.15625 C 5.90625 -3.15625 6.070312 -3.191406 6.15625 -3.265625 C 6.25 -3.347656 6.296875 -3.507812 6.296875 -3.75 L 6.296875 -4.46875 C 6.296875 -4.6875 6.25 -4.835938 6.15625 -4.921875 C 6.0625 -5.015625 5.894531 -5.0625 5.65625 -5.0625 Z M 1.375 0 L 1.375 -5.9375 L 6.140625 -5.9375 C 6.585938 -5.9375 6.90625 -5.84375 7.09375 -5.65625 C 7.289062 -5.476562 7.390625 -5.1875 7.390625 -4.78125 L 7.390625 -3.453125 C 7.390625 -3.054688 7.289062 -2.769531 7.09375 -2.59375 C 6.90625 -2.414062 6.585938 -2.328125 6.140625 -2.328125 L 5.359375 -2.328125 L 7.984375 0 L 6.484375 0 L 4.109375 -2.328125 L 2.5 -2.328125 L 2.5 0 Z M 1.375 0 "/></g></g></g><g fill="#ffcb46" fill-opacity="1"><g transform="translate(229.184832, 231.033633)"><g/></g></g><g fill="#ffcb46" fill-opacity="1"><g transform="translate(234.418238, 231.033633)"><g><path d="M 2.84375 -5.9375 C 2.863281 -5.789062 2.878906 -5.640625 2.890625 -5.484375 C 2.898438 -5.328125 2.90625 -5.125 2.90625 -4.875 L 2.90625 0 L 1.875 0 L 1.875 -7.21875 L 2.859375 -7.21875 L 6.375 -2.515625 L 9.640625 -7.21875 L 10.75 -7.21875 L 10.75 0 L 9.640625 0 L 9.640625 -4.875 C 9.640625 -4.9375 9.644531 -5.097656 9.65625 -5.359375 C 9.675781 -5.617188 9.691406 -5.8125 9.703125 -5.9375 C 9.609375 -5.75 9.523438 -5.585938 9.453125 -5.453125 C 9.390625 -5.328125 9.328125 -5.226562 9.265625 -5.15625 L 6.515625 -1.140625 L 6.203125 -1.140625 L 3.328125 -5.046875 C 3.328125 -5.046875 3.316406 -5.0625 3.296875 -5.09375 C 3.085938 -5.382812 2.9375 -5.664062 2.84375 -5.9375 Z M 2.84375 -5.9375 "/></g></g></g><g fill="#ffcb46" fill-opacity="1"><g transform="translate(247.050832, 231.033633)"><g><path d="M 2.46875 0 L 1.34375 0 L 1.34375 -5.921875 L 2.46875 -5.921875 Z M 2.46875 0 "/></g></g></g><g fill="#ffcb46" fill-opacity="1"><g transform="translate(250.856324, 231.033633)"><g><path d="M 6.609375 -5.046875 L 2.453125 -5.046875 L 2.453125 -3.515625 L 6.25 -3.515625 C 6.8125 -3.515625 7.191406 -3.414062 7.390625 -3.21875 C 7.597656 -3.03125 7.703125 -2.660156 7.703125 -2.109375 L 7.703125 -1.40625 C 7.703125 -0.851562 7.601562 -0.476562 7.40625 -0.28125 C 7.207031 -0.09375 6.820312 0 6.25 0 L 2.640625 0 C 2.078125 0 1.691406 -0.09375 1.484375 -0.28125 C 1.285156 -0.476562 1.1875 -0.851562 1.1875 -1.40625 L 1.1875 -1.5625 L 2.21875 -1.78125 L 2.21875 -0.890625 L 6.6875 -0.890625 L 6.6875 -2.5625 L 2.875 -2.5625 C 2.3125 -2.5625 1.925781 -2.65625 1.71875 -2.84375 C 1.519531 -3.039062 1.421875 -3.414062 1.421875 -3.96875 L 1.421875 -4.53125 C 1.421875 -5.070312 1.519531 -5.441406 1.71875 -5.640625 C 1.925781 -5.835938 2.3125 -5.9375 2.875 -5.9375 L 6.171875 -5.9375 C 6.722656 -5.9375 7.101562 -5.835938 7.3125 -5.640625 C 7.519531 -5.453125 7.625 -5.117188 7.625 -4.640625 L 7.625 -4.484375 L 6.609375 -4.265625 Z M 6.609375 -5.046875 "/></g></g></g><g fill="#ffcb46" fill-opacity="1"><g transform="translate(259.772244, 231.033633)"><g><path d="M 6.609375 -5.046875 L 2.453125 -5.046875 L 2.453125 -3.515625 L 6.25 -3.515625 C 6.8125 -3.515625 7.191406 -3.414062 7.390625 -3.21875 C 7.597656 -3.03125 7.703125 -2.660156 7.703125 -2.109375 L 7.703125 -1.40625 C 7.703125 -0.851562 7.601562 -0.476562 7.40625 -0.28125 C 7.207031 -0.09375 6.820312 0 6.25 0 L 2.640625 0 C 2.078125 0 1.691406 -0.09375 1.484375 -0.28125 C 1.285156 -0.476562 1.1875 -0.851562 1.1875 -1.40625 L 1.1875 -1.5625 L 2.21875 -1.78125 L 2.21875 -0.890625 L 6.6875 -0.890625 L 6.6875 -2.5625 L 2.875 -2.5625 C 2.3125 -2.5625 1.925781 -2.65625 1.71875 -2.84375 C 1.519531 -3.039062 1.421875 -3.414062 1.421875 -3.96875 L 1.421875 -4.53125 C 1.421875 -5.070312 1.519531 -5.441406 1.71875 -5.640625 C 1.925781 -5.835938 2.3125 -5.9375 2.875 -5.9375 L 6.171875 -5.9375 C 6.722656 -5.9375 7.101562 -5.835938 7.3125 -5.640625 C 7.519531 -5.453125 7.625 -5.117188 7.625 -4.640625 L 7.625 -4.484375 L 6.609375 -4.265625 Z M 6.609375 -5.046875 "/></g></g></g><g fill="#ffcb46" fill-opacity="1"><g transform="translate(268.688164, 231.033633)"><g><path d="M 2.46875 0 L 1.34375 0 L 1.34375 -5.921875 L 2.46875 -5.921875 Z M 2.46875 0 "/></g></g></g><g fill="#ffcb46" fill-opacity="1"><g transform="translate(272.493656, 231.033633)"><g><path d="M 2.359375 -0.890625 L 7.3125 -0.890625 L 7.3125 -5.046875 L 2.359375 -5.046875 Z M 1.234375 -4.53125 C 1.234375 -5.070312 1.332031 -5.441406 1.53125 -5.640625 C 1.738281 -5.835938 2.125 -5.9375 2.6875 -5.9375 L 6.96875 -5.9375 C 7.53125 -5.9375 7.910156 -5.835938 8.109375 -5.640625 C 8.316406 -5.441406 8.421875 -5.070312 8.421875 -4.53125 L 8.421875 -1.40625 C 8.421875 -0.863281 8.320312 -0.492188 8.125 -0.296875 C 7.925781 -0.0976562 7.539062 0 6.96875 0 L 2.6875 0 C 2.113281 0 1.726562 -0.09375 1.53125 -0.28125 C 1.332031 -0.476562 1.234375 -0.851562 1.234375 -1.40625 Z M 1.234375 -4.53125 "/></g></g></g><g fill="#ffcb46" fill-opacity="1"><g transform="translate(282.147456, 231.033633)"><g><path d="M 2.328125 -4.75 C 2.347656 -4.570312 2.363281 -4.394531 2.375 -4.21875 C 2.394531 -4.039062 2.40625 -3.863281 2.40625 -3.6875 L 2.40625 0 L 1.375 0 L 1.375 -5.9375 L 2.234375 -5.9375 L 6.578125 -2.0625 C 6.710938 -1.945312 6.835938 -1.820312 6.953125 -1.6875 C 7.066406 -1.5625 7.179688 -1.414062 7.296875 -1.25 C 7.265625 -1.425781 7.238281 -1.601562 7.21875 -1.78125 C 7.207031 -1.96875 7.203125 -2.160156 7.203125 -2.359375 L 7.203125 -5.9375 L 8.234375 -5.9375 L 8.234375 0 L 7.46875 0 L 3.015625 -3.9375 C 2.867188 -4.082031 2.738281 -4.21875 2.625 -4.34375 C 2.507812 -4.476562 2.410156 -4.613281 2.328125 -4.75 Z M 2.328125 -4.75 "/></g></g></g></svg>