<svg aria-hidden="true" style="position: absolute; width: 0; height: 0; overflow: hidden;" version="1.1" xmlns="http://www.w3.org/2000/svg" xmlns:xlink="http://www.w3.org/1999/xlink">
<defs>
<symbol id="icon-logo" viewBox="0 0 380 156">
    <path d="M31.8611 126.96C25.6528 113.939 22.7569 107.835 17.9444 97.0228H17.8403C14.9444 104.46 9.13193 118.002 5.19443 126.919C3.92359 129.752 2.44443 131.127 0.944427 131.356V131.648C2.25693 131.502 3.96526 131.356 5.81943 131.356C7.31943 131.356 9.36109 131.502 10.9236 131.648V131.356C7.94443 131.023 7.19443 129.71 8.23609 126.919C8.84026 125.356 9.42359 123.794 10.0278 122.231C11.7778 122.127 14.0486 122.085 16.3194 122.085C18.6528 122.085 21.1111 122.127 23.0486 122.169C23.7986 123.981 24.5278 125.585 25.0486 127.002C26.0903 129.71 24.7986 131.085 21.9236 131.356V131.648C24.2361 131.46 27.5486 131.356 29.6319 131.356C31.7153 131.356 34.7569 131.502 36.3611 131.648V131.356C34.0278 130.939 33.1319 129.669 31.8611 126.96ZM16.2778 119.96C14.7153 119.96 12.6319 119.856 11.0278 119.752C12.7778 115.273 14.5278 110.898 16.1319 107.023C17.7986 110.523 20.0694 115.314 22.0069 119.752C20.1111 119.856 17.9444 119.96 16.2778 119.96Z"/>
    <path d="M61.9793 123.835L61.6876 123.794C60.7501 128.189 59.0418 129.335 55.021 129.335C52.271 129.335 49.3751 129.085 49.1876 125.689C49.0626 123.606 49.0001 119.898 49.0001 114.606C49.0001 109.106 49.0626 106.731 49.3335 101.919C49.4793 99.5436 50.4793 98.3978 53.271 97.8353V97.5436C50.896 97.6895 48.2918 97.8353 46.1251 97.8353C43.9793 97.8353 41.3751 97.6895 38.9585 97.5436V97.8353C41.7085 98.3978 42.7918 99.5436 42.9376 101.96C43.2293 106.21 43.2293 109.669 43.2293 114.606C43.2293 119.96 43.2293 122.752 43.0001 127.148C42.8543 129.898 41.7085 130.794 39.021 131.356V131.648C42.2293 131.419 48.1043 131.356 51.0418 131.356C54.1668 131.356 57.9585 131.419 61.9793 131.689C61.6876 129.002 61.6876 126.439 61.9793 123.835Z"/>
    <path d="M79.5522 116.439V116.731C86.323 116.439 92.573 112.939 92.573 106.21C92.573 100.96 88.5105 97.5436 80.7814 97.5436C78.5105 97.5436 76.7605 97.8353 74.198 97.8353C72.5522 97.8353 69.6147 97.752 67.5314 97.5436V97.8353C70.2605 98.3561 71.3647 99.3561 71.5105 102.106C71.7397 106.46 71.7397 109.96 71.7397 114.648C71.7397 119.564 71.7397 123.023 71.448 127.294C71.3022 129.71 70.2189 130.835 67.4689 131.419V131.689C69.8855 131.544 72.4897 131.419 74.6355 131.419C76.8022 131.419 79.4064 131.544 81.7814 131.689V131.419C78.9897 130.835 77.9897 129.71 77.8439 127.335C77.573 122.502 77.5105 120.148 77.5105 114.648C77.5105 109.96 77.5105 106.544 77.8022 99.5436C78.5105 99.3978 79.1772 99.3561 79.7397 99.3561C84.0105 99.3561 86.5105 102.856 86.5105 107.439C86.5105 110.294 85.573 116.023 79.5522 116.439Z"/>
    <path d="M135.239 97.8353V97.5436C132.885 97.6895 130.218 97.8353 128.093 97.8353C125.906 97.8353 123.301 97.6895 120.906 97.5436V97.8353C123.635 98.3978 124.739 99.5853 124.864 102.002C125.114 105.648 125.197 108.689 125.197 112.523C122.406 112.71 119.614 112.794 116.593 112.794C113.176 112.794 110.051 112.752 106.968 112.523C106.968 108.439 107.072 106.127 107.301 102.002C107.447 99.5853 108.447 98.4603 111.239 97.8353V97.5436C108.864 97.6895 106.26 97.8353 104.093 97.8353C101.947 97.8353 99.3431 97.6895 96.9265 97.5436V97.8353C99.6765 98.3978 100.76 99.5853 100.906 102.002C101.197 106.273 101.197 109.669 101.197 114.606C101.197 119.523 101.197 122.939 100.906 127.189C100.76 129.606 99.6765 130.794 96.9265 131.356V131.648C99.3431 131.502 101.947 131.356 104.093 131.356C106.26 131.356 108.864 131.502 111.239 131.648V131.356C108.531 130.794 107.447 129.606 107.301 127.189C107.031 122.564 106.968 120.231 106.968 115.023C109.947 114.835 112.885 114.794 115.885 114.794C119.051 114.794 122.135 114.835 125.197 115.023C125.197 119.71 125.156 123.085 124.864 127.189C124.739 129.606 123.635 130.794 120.906 131.356V131.648C123.301 131.502 125.906 131.356 128.093 131.356C130.218 131.356 132.885 131.502 135.239 131.648V131.356C132.489 130.794 131.447 129.606 131.322 127.189C130.989 122.419 130.989 120.085 130.989 114.606C130.989 109.106 130.989 106.794 131.322 102.002C131.447 99.5853 132.447 98.4603 135.239 97.8353Z"/>
    <path d="M168.777 126.96C162.569 113.939 159.673 107.835 154.861 97.0228H154.756C151.861 104.46 146.048 118.002 142.111 126.919C140.84 129.752 139.361 131.127 137.861 131.356V131.648C139.173 131.502 140.881 131.356 142.736 131.356C144.236 131.356 146.277 131.502 147.84 131.648V131.356C144.861 131.023 144.111 129.71 145.152 126.919C145.756 125.356 146.34 123.794 146.944 122.231C148.694 122.127 150.965 122.085 153.236 122.085C155.569 122.085 158.027 122.127 159.965 122.169C160.715 123.981 161.444 125.585 161.965 127.002C163.006 129.71 161.715 131.085 158.84 131.356V131.648C161.152 131.46 164.465 131.356 166.548 131.356C168.631 131.356 171.673 131.502 173.277 131.648V131.356C170.944 130.939 170.048 129.669 168.777 126.96ZM153.194 119.96C151.631 119.96 149.548 119.856 147.944 119.752C149.694 115.273 151.444 110.898 153.048 107.023C154.715 110.523 156.986 115.314 158.923 119.752C157.027 119.856 154.861 119.96 153.194 119.96Z"/>
    <path d="M227.411 127.481C226.036 117.294 225.036 107.585 224.286 97.0228H224.182C219.349 105.689 214.62 113.794 208.891 123.023C202.411 112.981 197.661 105.169 193.036 97.0228H192.932C192.182 106.981 191.078 117.439 189.807 127.294C189.432 130.044 188.391 130.794 185.641 131.419V131.689C187.807 131.46 189.328 131.419 191.036 131.419C192.891 131.419 194.349 131.46 196.578 131.689V131.419C193.495 130.71 192.828 129.939 192.974 127.252C193.349 121.794 193.828 116.877 194.495 111.335C198.891 118.294 203.203 125.398 206.995 132.169H207.099C210.974 125.106 214.953 118.294 219.266 111.189C220.016 116.585 220.495 121.898 220.828 127.439C220.974 130.189 219.932 130.794 217.266 131.419V131.689C219.536 131.419 222.286 131.419 224.328 131.419C226.974 131.419 229.495 131.46 231.724 131.689V131.419C228.911 130.794 227.786 130.085 227.411 127.481Z"/>
    <path d="M253.447 132.127C264.155 132.127 271.551 124.46 271.551 114.502C271.551 104.377 263.489 97.0228 253.176 97.0228C242.51 97.0228 234.989 104.71 234.989 114.689C234.989 124.773 243.093 132.127 253.447 132.127ZM253.843 130.189C245.697 130.189 241.239 121.898 241.239 113.419C241.239 105.231 245.78 98.9811 252.801 98.9811C260.947 98.9811 265.301 107.314 265.301 115.689C265.301 124.064 260.801 130.189 253.843 130.189Z"/>
    <path d="M316.637 127.481C315.262 117.294 314.262 107.585 313.512 97.0228H313.407C308.574 105.689 303.845 113.794 298.116 123.023C291.637 112.981 286.887 105.169 282.262 97.0228H282.157C281.407 106.981 280.303 117.439 279.032 127.294C278.657 130.044 277.616 130.794 274.866 131.419V131.689C277.032 131.46 278.553 131.419 280.262 131.419C282.116 131.419 283.574 131.46 285.803 131.689V131.419C282.72 130.71 282.053 129.939 282.199 127.252C282.574 121.794 283.053 116.877 283.72 111.335C288.116 118.294 292.428 125.398 296.22 132.169H296.324C300.199 125.106 304.178 118.294 308.491 111.189C309.241 116.585 309.72 121.898 310.053 127.439C310.199 130.189 309.157 130.794 306.491 131.419V131.689C308.762 131.419 311.512 131.419 313.553 131.419C316.199 131.419 318.72 131.46 320.949 131.689V131.419C318.137 130.794 317.012 130.085 316.637 127.481Z"/>
    <path d="M338.422 97.8353V97.5436C336.047 97.6895 333.443 97.8353 331.277 97.8353C329.131 97.8353 326.527 97.6895 324.11 97.5436V97.8353C326.86 98.3978 327.943 99.5853 328.089 102.002C328.381 106.273 328.381 109.669 328.381 114.606C328.381 119.523 328.381 122.939 328.089 127.189C327.943 129.606 326.86 130.794 324.11 131.356V131.648C326.527 131.502 329.131 131.356 331.277 131.356C333.443 131.356 336.047 131.502 338.422 131.648V131.356C335.714 130.794 334.631 129.606 334.485 127.189C334.214 122.419 334.152 120.085 334.152 114.606C334.152 109.106 334.214 106.794 334.485 102.002C334.631 99.5853 335.631 98.4603 338.422 97.8353Z"/>
    <path d="M373.595 97.8353C372.033 97.8353 370.429 97.752 368.012 97.5436V97.8353C370.387 98.3978 371.658 99.3561 371.804 102.044C371.991 105.648 372.095 108.689 372.095 113.377V120.564C363.804 113.044 355.47 105.231 347.137 97.0228H347.033C347.095 102.481 347.095 108.814 347.095 114.273C347.095 119.523 347.033 123.085 346.845 127.189C346.699 129.856 345.429 130.794 343.054 131.356V131.648C345.429 131.46 346.845 131.356 348.408 131.356C349.929 131.356 351.679 131.46 354.095 131.648V131.356C351.72 130.794 350.449 129.856 350.304 127.106C350.116 123.023 350.033 119.481 350.033 114.231V108.585C358.595 116.252 366.887 124.127 374.97 132.127H375.074C375.033 126.148 375.033 119.564 375.033 113.752C375.033 108.919 375.074 105.689 375.262 102.002C375.408 99.3561 376.679 98.3978 379.054 97.8353V97.5436C376.679 97.752 375.158 97.8353 373.595 97.8353Z"/>
    <mask id="mask0_1_154" style="mask-type:luminance" maskUnits="userSpaceOnUse" x="17" y="30" width="91" height="60">
    <path d="M17.1354 30H107.667V90H17.1354V30Z" fill="white"/>
    </mask>
    <g mask="url(#mask0_1_154)">
    <path d="M76.1041 74.2552C83.4739 60.0521 94.4427 49.0833 107.568 40.9948C99.6562 43.3333 91.026 43.1511 83.1145 40.6354C80.9583 45.6667 75.5677 49.8021 70.1718 50.3438C73.5885 49.625 76.8229 46.7448 78.6198 43.6927C80.4218 40.8125 81.5 37.3958 82.3958 34.1615C77.1823 41.1719 72.8698 46.7448 65.1354 47.1094C71.7916 44.0521 76.6458 37.5781 78.2604 30.5677C72.6875 36.1406 64.776 38.6563 57.2239 40.4531C49.4948 42.25 41.5833 43.3333 34.75 47.2865C27.9218 51.0625 22.1666 58.4323 23.0677 66.1667C25.0416 66.3438 27.5625 65.0886 28.6406 63.2865C29.5364 61.849 29.7187 60.5938 31.3385 59.3333C32.9531 58.0729 35.2916 57.1771 37.2708 56.8177L36.3698 56.9948C34.5729 62.9271 22.8854 67.6042 22.8854 67.6042C20.7291 68.5 19.2916 70.6615 18.3906 72.8177C17.8541 74.4375 17.1354 76.5938 17.4948 78.2136C22.3489 76.0521 26.302 73.5365 31.6979 73.1771C36.7291 72.6354 41.7656 73.5365 46.6198 75.1563C55.25 78.2083 62.802 83.6042 69.9895 89.3594C71.6093 84.5052 73.5885 79.2917 76.1041 74.2552Z" fill="#B83338"/>
    </g>
    <path d="M364.854 23.9115C364.854 23.9115 299.948 54.2969 191.891 32.0052C191.891 32.0052 343.458 52.1406 357.479 0.901047C338.063 5.9323 318.104 9.89063 298.328 13.4844C277.833 17.0833 256.974 19.9583 236.302 22.6563C201.422 27.151 166 21.3958 131.839 32.3646C109.365 39.7344 89.9479 54.1198 78.9792 75.3333C75.9271 81.4479 73.4063 87.9219 71.9688 94.5729C84.9167 76.0521 106.313 62.75 128.964 62.5677C145.323 62.3906 160.969 68.5 176.068 74.974C193.328 82.3438 210.771 89.8958 229.286 93.1354C243.49 95.4688 258.953 94.9323 270.818 86.8385C241.693 82.526 214.365 71.7396 186.5 62.5677C173.734 58.2552 160.969 54.4792 147.844 51.4219C147.844 51.4219 167.62 53.9375 188.474 60.0521C192.792 61.4896 197.286 63.1094 201.599 64.3646C202.677 64.724 203.938 65.0885 205.016 65.4479C214.005 67.9635 223.354 69.9427 232.703 71.5573C262.729 77.6719 283.406 78.0313 297.786 75.875C308.219 74.7969 320.625 72.276 326.917 63.4688C327.094 63.2865 327.094 63.1094 327.094 63.1094C326.734 63.1094 326.557 63.1094 326.198 63.1094C323.677 63.1094 315.229 63.2865 303.182 62.9271C231.807 60.2292 167.62 39.0156 167.62 39.0156C167.62 39.0156 247.625 56.9948 270.099 55.375C270.458 55.1979 351.729 58.6146 364.854 23.9115Z" fill="#B83338"/>
    <path d="M57.4528 154.045V149.837L52.5778 144.42H54.5778L58.3278 148.712L61.9528 144.42H63.9111L59.0569 149.816V154.045H57.4528Z" fill="#B83338"/>
    <path d="M67.6359 152.857H74.24V147.316H67.6359V152.857ZM66.1359 148.003C66.1359 147.284 66.2661 146.79 66.5317 146.524C66.8077 146.264 67.3234 146.128 68.0734 146.128H73.7817C74.5317 146.128 75.0369 146.264 75.3025 146.524C75.5786 146.79 75.7192 147.284 75.7192 148.003V152.17C75.7192 152.894 75.5838 153.389 75.3234 153.649C75.0577 153.915 74.5421 154.045 73.7817 154.045H68.0734C67.3077 154.045 66.7921 153.92 66.5317 153.67C66.2661 153.409 66.1359 152.909 66.1359 152.17V148.003Z" fill="#B83338"/>
    <path d="M80.6951 146.128V152.857H86.4659V146.128H87.9868V152.17C87.9868 152.909 87.8461 153.409 87.5701 153.67C87.3045 153.92 86.7993 154.045 86.0493 154.045H81.1326C80.3826 154.045 79.867 153.915 79.5909 153.649C79.3253 153.389 79.1951 152.894 79.1951 152.17V146.128H80.6951Z" fill="#B83338"/>
    <path d="M97.347 147.295H93.1387V149.837H97.347C97.6803 149.837 97.8991 149.79 98.0137 149.691C98.1387 149.581 98.2012 149.368 98.2012 149.045V148.087C98.2012 147.795 98.1387 147.597 98.0137 147.482C97.8887 147.357 97.6647 147.295 97.347 147.295ZM91.6387 154.045V146.128H97.9928C98.5866 146.128 99.0137 146.253 99.2637 146.503C99.5241 146.743 99.6595 147.128 99.6595 147.67V149.441C99.6595 149.972 99.5241 150.352 99.2637 150.587C99.0137 150.826 98.5866 150.941 97.9928 150.941H96.9512L100.451 154.045H98.4512L95.2845 150.941H93.1387V154.045H91.6387Z" fill="#B83338"/>
    <path d="M118.945 145.732H112.111V148.42H118.195C119.039 148.42 119.622 148.581 119.945 148.899C120.262 149.206 120.424 149.805 120.424 150.691V151.774C120.424 152.649 120.262 153.248 119.945 153.566C119.637 153.889 119.054 154.045 118.195 154.045H112.57C111.695 154.045 111.096 153.889 110.778 153.566C110.455 153.248 110.299 152.649 110.299 151.774V151.503L111.799 151.149V152.712H118.966V149.816H112.924C112.049 149.816 111.45 149.659 111.132 149.337C110.825 149.019 110.674 148.415 110.674 147.524V146.691C110.674 145.805 110.825 145.206 111.132 144.899C111.45 144.581 112.049 144.42 112.924 144.42H118.049C118.908 144.42 119.497 144.581 119.82 144.899C120.153 145.206 120.32 145.748 120.32 146.524V146.732L118.945 147.107V145.732Z" fill="#B83338"/>
    <path d="M126.115 146.128V152.857H131.886V146.128H133.407V152.17C133.407 152.909 133.266 153.409 132.99 153.67C132.724 153.92 132.219 154.045 131.469 154.045H126.553C125.803 154.045 125.287 153.915 125.011 153.649C124.745 153.389 124.615 152.894 124.615 152.17V146.128H126.115Z" fill="#B83338"/>
    <path d="M143.892 147.316H138.371V152.857H143.892V150.962L145.371 151.253V152.17C145.371 152.894 145.23 153.389 144.954 153.649C144.689 153.915 144.184 154.045 143.434 154.045H138.788C138.038 154.045 137.527 153.92 137.267 153.67C137.001 153.42 136.871 152.92 136.871 152.17V148.003C136.871 147.269 137.001 146.774 137.267 146.524C137.527 146.264 138.038 146.128 138.788 146.128H143.434C144.184 146.128 144.689 146.264 144.954 146.524C145.23 146.79 145.371 147.284 145.371 148.003V148.753L143.892 149.003V147.316Z" fill="#B83338"/>
    <path d="M155.388 147.316H149.867V152.857H155.388V150.962L156.867 151.253V152.17C156.867 152.894 156.727 153.389 156.451 153.649C156.185 153.915 155.68 154.045 154.93 154.045H150.284C149.534 154.045 149.024 153.92 148.763 153.67C148.498 153.42 148.367 152.92 148.367 152.17V148.003C148.367 147.269 148.498 146.774 148.763 146.524C149.024 146.264 149.534 146.128 150.284 146.128H154.93C155.68 146.128 156.185 146.264 156.451 146.524C156.727 146.79 156.867 147.284 156.867 148.003V148.753L155.388 149.003V147.316Z" fill="#B83338"/>
    <path d="M160.051 154.045V146.128H168.009V147.316H161.551V149.337H165.447V150.524H161.551V152.878H168.093V154.045H160.051Z" fill="#B83338"/>
    <path d="M177.87 147.316H172.329V149.357H177.391C178.141 149.357 178.647 149.493 178.912 149.753C179.188 150.003 179.329 150.498 179.329 151.232V152.17C179.329 152.909 179.193 153.409 178.933 153.67C178.667 153.92 178.152 154.045 177.391 154.045H172.579C171.829 154.045 171.313 153.92 171.037 153.67C170.772 153.409 170.641 152.909 170.641 152.17V151.962L172.016 151.67V152.857H177.975V150.628H172.891C172.141 150.628 171.626 150.503 171.35 150.253C171.084 149.993 170.954 149.493 170.954 148.753V148.003C170.954 147.284 171.084 146.79 171.35 146.524C171.626 146.264 172.141 146.128 172.891 146.128H177.287C178.022 146.128 178.527 146.264 178.808 146.524C179.084 146.774 179.225 147.222 179.225 147.857V148.066L177.87 148.357V147.316Z" fill="#B83338"/>
    <path d="M189.758 147.316H184.217V149.357H189.279C190.029 149.357 190.534 149.493 190.8 149.753C191.076 150.003 191.217 150.498 191.217 151.232V152.17C191.217 152.909 191.081 153.409 190.821 153.67C190.555 153.92 190.04 154.045 189.279 154.045H184.467C183.717 154.045 183.201 153.92 182.925 153.67C182.659 153.409 182.529 152.909 182.529 152.17V151.962L183.904 151.67V152.857H189.863V150.628H184.779C184.029 150.628 183.514 150.503 183.238 150.253C182.972 149.993 182.842 149.493 182.842 148.753V148.003C182.842 147.284 182.972 146.79 183.238 146.524C183.514 146.264 184.029 146.128 184.779 146.128H189.175C189.909 146.128 190.415 146.264 190.696 146.524C190.972 146.774 191.113 147.222 191.113 147.857V148.066L189.758 148.357V147.316Z" fill="#B83338"/>
    <path d="M196.792 152.003C197.052 152.003 197.214 152.04 197.271 152.107C197.323 152.165 197.355 152.295 197.355 152.503V153.92L196.042 155.92H195.23L196.334 153.857H195.688C195.532 153.857 195.427 153.826 195.375 153.753C195.318 153.685 195.292 153.555 195.292 153.357V152.503C195.292 152.284 195.318 152.144 195.375 152.087C195.427 152.034 195.589 152.003 195.855 152.003H196.792Z" fill="#B83338"/>
    <path d="M210.769 152.712H218.748V145.732H210.769V152.712ZM209.164 146.691C209.164 145.816 209.316 145.222 209.623 144.899C209.941 144.581 210.539 144.42 211.414 144.42H218.081C218.956 144.42 219.545 144.581 219.852 144.899C220.17 145.206 220.331 145.805 220.331 146.691V151.774C220.331 152.649 220.17 153.248 219.852 153.566C219.545 153.889 218.956 154.045 218.081 154.045H211.414C210.539 154.045 209.941 153.889 209.623 153.566C209.316 153.248 209.164 152.649 209.164 151.774V146.691Z" fill="#B83338"/>
    <path d="M226.037 146.128V152.857H231.808V146.128H233.329V152.17C233.329 152.909 233.188 153.409 232.912 153.67C232.646 153.92 232.141 154.045 231.391 154.045H226.475C225.725 154.045 225.209 153.915 224.933 153.649C224.667 153.389 224.537 152.894 224.537 152.17V146.128H226.037Z" fill="#B83338"/>
    <path d="M242.689 147.295H238.481V149.837H242.689C243.022 149.837 243.241 149.79 243.356 149.691C243.481 149.581 243.543 149.368 243.543 149.045V148.087C243.543 147.795 243.481 147.597 243.356 147.482C243.231 147.357 243.007 147.295 242.689 147.295ZM236.981 154.045V146.128H243.335C243.929 146.128 244.356 146.253 244.606 146.503C244.866 146.743 245.002 147.128 245.002 147.67V149.441C245.002 149.972 244.866 150.352 244.606 150.587C244.356 150.826 243.929 150.941 243.335 150.941H242.293L245.793 154.045H243.793L240.627 150.941H238.481V154.045H236.981Z" fill="#B83338"/>
    <path d="M257.349 146.128C257.375 146.326 257.396 146.524 257.412 146.732C257.422 146.941 257.433 147.212 257.433 147.545V154.045H256.058V144.42H257.37L262.058 150.691L266.412 144.42H267.891V154.045H266.412V147.545C266.412 147.462 266.417 147.248 266.433 146.899C266.459 146.555 266.479 146.295 266.495 146.128C266.37 146.378 266.256 146.597 266.162 146.774C266.078 146.941 265.995 147.076 265.912 147.17L262.245 152.524H261.828L257.995 147.316C257.995 147.316 257.979 147.295 257.953 147.253C257.672 146.868 257.474 146.493 257.349 146.128Z" fill="#B83338"/>
    <path d="M273.693 154.045H272.193V146.149H273.693V154.045Z" fill="#B83338"/>
    <path d="M284.288 147.316H278.746V149.357H283.808C284.558 149.357 285.064 149.493 285.329 149.753C285.605 150.003 285.746 150.498 285.746 151.232V152.17C285.746 152.909 285.611 153.409 285.35 153.67C285.085 153.92 284.569 154.045 283.808 154.045H278.996C278.246 154.045 277.73 153.92 277.454 153.67C277.189 153.409 277.058 152.909 277.058 152.17V151.962L278.433 151.67V152.857H284.392V150.628H279.308C278.558 150.628 278.043 150.503 277.767 150.253C277.501 149.993 277.371 149.493 277.371 148.753V148.003C277.371 147.284 277.501 146.79 277.767 146.524C278.043 146.264 278.558 146.128 279.308 146.128H283.704C284.439 146.128 284.944 146.264 285.225 146.524C285.501 146.774 285.642 147.222 285.642 147.857V148.066L284.288 148.357V147.316Z" fill="#B83338"/>
    <path d="M296.175 147.316H290.634V149.357H295.696C296.446 149.357 296.951 149.493 297.217 149.753C297.493 150.003 297.634 150.498 297.634 151.232V152.17C297.634 152.909 297.498 153.409 297.238 153.67C296.972 153.92 296.457 154.045 295.696 154.045H290.884C290.134 154.045 289.618 153.92 289.342 153.67C289.076 153.409 288.946 152.909 288.946 152.17V151.962L290.321 151.67V152.857H296.28V150.628H291.196C290.446 150.628 289.931 150.503 289.655 150.253C289.389 149.993 289.259 149.493 289.259 148.753V148.003C289.259 147.284 289.389 146.79 289.655 146.524C289.931 146.264 290.446 146.128 291.196 146.128H295.592C296.326 146.128 296.832 146.264 297.113 146.524C297.389 146.774 297.53 147.222 297.53 147.857V148.066L296.175 148.357V147.316Z" fill="#B83338"/>
    <path d="M302.543 154.045H301.043V146.149H302.543V154.045Z" fill="#B83338"/>
    <path d="M307.471 152.857H314.075V147.316H307.471V152.857ZM305.971 148.003C305.971 147.284 306.101 146.79 306.367 146.524C306.643 146.264 307.158 146.128 307.908 146.128H313.617C314.367 146.128 314.872 146.264 315.137 146.524C315.413 146.79 315.554 147.284 315.554 148.003V152.17C315.554 152.894 315.419 153.389 315.158 153.649C314.893 153.915 314.377 154.045 313.617 154.045H307.908C307.143 154.045 306.627 153.92 306.367 153.67C306.101 153.409 305.971 152.909 305.971 152.17V148.003Z" fill="#B83338"/>
    <path d="M320.301 147.712C320.327 147.951 320.348 148.185 320.363 148.42C320.389 148.659 320.405 148.894 320.405 149.128V154.045H319.03V146.128H320.176L325.967 151.295C326.144 151.451 326.311 151.618 326.467 151.795C326.618 151.962 326.769 152.159 326.926 152.378C326.884 152.144 326.848 151.909 326.822 151.67C326.806 151.42 326.801 151.165 326.801 150.899V146.128H328.176V154.045H327.155L321.217 148.795C321.019 148.602 320.848 148.42 320.697 148.253C320.54 148.076 320.41 147.894 320.301 147.712Z" fill="#B83338"/>
</symbol>
<symbol id="icon-contactform" data-name="Layer 1" viewBox="0 0 717.67004 544.56279">
    <path d="M528.35053,230.24577c-8.74377,15.063,7.72065,40.4432-8.87275,45.71354l1.367-1.367c10.0162-12.32036-10.919-38.397-.90274-50.71737a30.10219,30.10219,0,0,0,3.97967-5.91559" transform="translate(-241.16498 -177.71861)" fill="#2f2e41"/>
    <path d="M610.23656,451.23117a10.49546,10.49546,0,0,0-10.19069-12.456L578.43258,375.982l-11.96325,15.2489L589.321,449.904a10.55234,10.55234,0,0,0,20.91553,1.32714Z" transform="translate(-241.16498 -177.71861)" fill="#ffb8b8"/>
    <path d="M515.23087,299.62387s-.67244-22.7304,19.65389-9.70908S599.46694,424.9139,599.46694,424.9139l-22.0235,11.9154L527.44685,325.20578Z" transform="translate(-241.16498 -177.71861)" fill="#b83338"/>
    <polygon points="334.034 511.488 323.884 515.825 302.324 478.74 317.305 472.338 334.034 511.488" fill="#ffb6b6"/>
    <path d="M588.0705,704.50277l-7.27882,3.11037-4.2358-6.31688-.391,8.294-19.30517,8.24944a4.71923,4.71923,0,0,1-5.84632-6.857l10.86679-17.235-2.96876-6.94743,16.62909-5.96133Z" transform="translate(-241.16498 -177.71861)" fill="#2f2e41"/>
    <polygon points="174.924 524.067 163.9 523.528 160.731 480.749 177.003 481.544 174.924 524.067" fill="#ffb6b6"/>
    <path d="M420.97453,721.17129l-7.9061-.38639-1.0464-7.53326-3.9791,7.28765-20.96886-1.0248a4.71924,4.71924,0,0,1-2.25849-8.72338l17.3103-10.74639.3688-7.54615,17.56156,1.91205Z" transform="translate(-241.16498 -177.71861)" fill="#2f2e41"/>
    <path d="M740.917,694.96942a3.56386,3.56386,0,0,0,2.52393-6.20136c-.09328-.35631-.1602-.61214-.25341-.9685a9.57475,9.57475,0,0,1,17.74853-.33644c4.31772,9.84579,9.88142,20.02805,7.26661,30.94266,17.594-38.22733,11.03667-85.50773-15.81028-117.80021-7.37364-3.97084-13.38731-11.09312-15.01445-19.41415,3.642,1.19546,8.14-1.80049,5.37412-5.59841-1.197-1.45023-2.40544-2.88879-3.60237-4.33908,13.65013-14.81754,30.30051,8.10753,15.31045,28.074a114.26429,114.26429,0,0,1,13.024,19.95055,48.04331,48.04331,0,0,1,2.65565-22.34155c2.68222-6.64886,7.77474-12.27553,12.25158-18.044,5.443-7.02861,16.81306-3.91815,17.6387,4.92755-5.06867,1.71965-5.65929,9.07055.16646,10.02036-1.36654,16.48349-11.98172,31.72082-26.73177,39.08465a114.70968,114.70968,0,0,1,6.72483,47.88518c2.43494-19.011,22.77131-23.8125,36.94436-31.49419a5.54912,5.54912,0,0,1,8.516,5.53977,32.05186,32.05186,0,0,0-5.58948,3.01718,4.84411,4.84411,0,0,0,2.33454,8.8211c-7.01111,17.83933-25.46154,29.94946-44.52854,30.06384a117.92872,117.92872,0,0,1-7.70134,23.201l-28.29843.26948c-.10449-.31345-.19885-.63723-.29316-.95078a32.15277,32.15277,0,0,0,7.82585-.5411c-7.00816-8.139-12.40748-12.27406-8.48327-23.76706Z" transform="translate(-241.16498 -177.71861)" fill="#f2f2f2"/>
    <path d="M443.93871,423.70394s-22.419,61.09728-22.78123,67.93447-6.75591,93.29728-12.11811,98.3209-21.75591,82.90815-9,89,53-4,53-4l14-92,4.75591-70.48371s14.4788,165.97637,40.7394,165.48819,58.2606-10.48819,58.2606-10.48819L534.03937,566.95931s.51968-118.99873-8-143S443.93871,423.70394,443.93871,423.70394Z" transform="translate(-241.16498 -177.71861)" fill="#2f2e41"/>
    <path d="M510.46306,266.29342l-30.02424,2.75011-4.8369,14.84778s-25.12627,13.799-19.56255,20.068-1.24409,48.51629-1.24409,48.51629l1.53763,34.29291s-1.65173,23.75888-6.59468,29.233-17.87482,18.89736-8.73744,12.47537c32.03858-22.51755,88.03858-3.51755,88.03858-3.51755l-8-49s18.171-80.2247,11-87-13.937-7.63165-13.937-7.63165Z" transform="translate(-241.16498 -177.71861)" fill="#b83338"/>
    <path d="M352.699,421.72134a10.49547,10.49547,0,0,0,7.899-14.02168l50.6395-42.96233-18.55467-5.60111L346.3317,401.75441a10.55234,10.55234,0,0,0,6.3673,19.96693Z" transform="translate(-241.16498 -177.71861)" fill="#ffb8b8"/>
    <path d="M481.30457,309.34381s9.9774-20.43464-13.90837-16.944-114.46472,96.40252-114.46472,96.40252L368.09,408.733l91.544-81.11205Z" transform="translate(-241.16498 -177.71861)" fill="#b83338"/>
    <path d="M442.4072,274.68222,347.70481,396.00816a10.08064,10.08064,0,0,0,1.74093,14.12657c21.99237,53.3988,87.78748,92.9964,165.1861,128.938a10.07423,10.07423,0,0,0,14.12658-1.741l94.70239-121.32594a10.07419,10.07419,0,0,0-1.741-14.12659c-64.952-36.67587-120.77823-79.16815-165.1861-128.93795A10.0806,10.0806,0,0,0,442.4072,274.68222Z" transform="translate(-241.16498 -177.71861)" fill="#e6e6e6"/>
    <path d="M616.814,413.24549l-28.82644,36.93038a107.91279,107.91279,0,0,1-151.02282,18.612L356.18,405.73035a5.73345,5.73345,0,0,1-.99832-8.03743l91.51114-117.23753a5.73348,5.73348,0,0,1,8.03933-.983c40.86527,52.76917,95.56689,93.83378,161.09216,125.74238A5.728,5.728,0,0,1,616.814,413.24549Z" transform="translate(-241.16498 -177.71861)" fill="#fff"/>
    <path d="M440.518,340.91459,421.74459,364.9657a3.05106,3.05106,0,0,1-4.81022-3.75468l18.77338-24.05111a3.05106,3.05106,0,1,1,4.81022,3.75468Z" transform="translate(-241.16498 -177.71861)" fill="#ccc"/>
    <path d="M475.73121,323.07417l-41.22784,52.81817a3.05106,3.05106,0,0,1-4.81023-3.75468L470.921,319.3195a3.05106,3.05106,0,1,1,4.81022,3.75467Z" transform="translate(-241.16498 -177.71861)" fill="#ccc"/>
    <circle cx="164.25091" cy="213.35969" r="20.09591" fill="#b83338"/>
    <path d="M477.92013,364.8182l-50.63607,64.87132a3.07083,3.07083,0,0,1-4.81022-3.75468l50.63607-64.87131a3.07083,3.07083,0,0,1,4.81022,3.75467Z" transform="translate(-241.16498 -177.71861)" fill="#ccc"/>
    <path d="M510.7689,350.007l-70.67559,90.54451a3.07083,3.07083,0,0,1-4.81022-3.75468l70.67558-90.5445a3.07083,3.07083,0,0,1,4.81023,3.75467Z" transform="translate(-241.16498 -177.71861)" fill="#ccc"/>
    <path d="M510.5235,390.26715l-50.63607,64.87132a3.07083,3.07083,0,0,1-4.81022-3.75468l50.63607-64.87131a3.07083,3.07083,0,0,1,4.81022,3.75467Z" transform="translate(-241.16498 -177.71861)" fill="#ccc"/>
    <path d="M577.5235,398.26715l-50.63607,64.87132a3.07083,3.07083,0,0,1-4.81022-3.75468l50.63607-64.87131a3.07083,3.07083,0,0,1,4.81022,3.75467Z" transform="translate(-241.16498 -177.71861)" fill="#b83338"/>
    <path d="M543.37227,375.45593l-70.67559,90.54451a3.07083,3.07083,0,0,1-4.81022-3.75468l70.67559-90.5445a3.07083,3.07083,0,0,1,4.81022,3.75467Z" transform="translate(-241.16498 -177.71861)" fill="#ccc"/>
    <path d="M460.1263,227.96223A29.82287,29.82287,0,1,0,511.42163,207.277l-.14314-.143c-.2386-.25061-.4772-.50107-.72774-.73974a.01167.01167,0,0,1-.01186-.01194c-.31017-.28629-.62034-.57258-.94245-.84693a29.815,29.815,0,0,0-49.47014,22.42686Z" transform="translate(-241.16498 -177.71861)" fill="#2f2e41"/>
    <circle cx="256.13166" cy="57.14378" r="25.00775" fill="#ffb8b8"/>
    <path d="M470.637,241.52685c-2.44434-11.01562,1.08886-23.35693,8.792-30.71093a28.19911,28.19911,0,0,1,29.44824-5.708c.62891.2539,1.25781.53174,1.875.82177l.28711.13526v.042c.05566.03857.11133.0791.167.12012a.95727.95727,0,0,0,.41309.228,15.4171,15.4171,0,0,1,11.63379,4.8496c3.876,4.20557,5.70117,11.002,5.1416,19.13721l-.01758.2544-.2168.13525a85.4635,85.4635,0,0,1-9.11816,5.02734c-10.97852,5.16211-21.001,6.11866-30.63379,2.92041l-.17676-.05859-4.043-6.77588c-.83007,4.67334-.38671,20.17465-5.14941,21.01449l-8.29883-10.96517Z" transform="translate(-241.16498 -177.71861)" fill="#2f2e41"/><path d="M417.994,263.30087c8.51008-4.39247-2.43482-20.33442-.23553-29.65523,2.19936-9.32082,18.037-12.31871,19.04593-21.84222s3.38245-19.346,9.6668-26.5725c4.01568-4.61773,9.93278-8.02669,16.02491-7.44829a14.40869,14.40869,0,0,1,12.62827,17.79208c1.73454-2.45776,6.22341-1.92509,7.33449.87052.98788,2.48528-1.19437,5.49567-3.76252,5.71556-3.36046,4.15-7.2086,8.55427-12.47325,9.39143a5.6806,5.6806,0,0,1-4.84076-1.11733c-1.23856-1.18942-1.33489-3.56739.13434-4.45625-6.61615,2.62814-10.49509,9.78155-11.47678,16.83259-.98162,7.051.3765,14.18523,1.27147,21.24777s1.28058,14.492-1.48859,21.05046c-3.27178,7.74885-10.80453,13.30263-19.02519,15.0837s-16.97551.04034-24.41659-3.88148c-7.44108-3.92212-13.64622-9.90941-18.71523-16.62188C396.39747,265.89,408.47784,268.21276,417.994,263.30087Z" transform="translate(-241.16498 -177.71861)" fill="#2f2e41"/>
    <path d="M485.35053,233.24577c-8.74377,15.063,7.72065,40.4432-8.87275,45.71354l1.367-1.367c10.0162-12.32036-10.919-38.397-.90274-50.71737a30.10219,30.10219,0,0,0,3.97967-5.91559" transform="translate(-241.16498 -177.71861)" fill="#2f2e41"/>
    <path d="M471.80491,241.29893s7.408-27.65168,39.16341-34.03389c.03575-.01179.15508-.05956.31017-.13106.09538-.0597.21471-.1194.334-.179-.35786-.20285-.70378-.38167-1.06172-.56078a.01167.01167,0,0,1-.01186-.01194c-.31017-.28629-.62034-.57258-.94245-.84693l-.90663.03583S476.82711,200.52519,471.80491,241.29893Z" transform="translate(-241.16498 -177.71861)" fill="#fd6584"/>
    <path d="M241.165,721.09139a1.18646,1.18646,0,0,0,1.19006,1.19h715.29a1.19,1.19,0,0,0,0-2.38H242.355A1.18651,1.18651,0,0,0,241.165,721.09139Z" transform="translate(-241.16498 -177.71861)" fill="#ccc"/>
</symbol>
<symbol id="icon-check" viewBox="0 0 28 28">
<path d="M26.109 8.844c0 0.391-0.156 0.781-0.438 1.062l-13.438 13.438c-0.281 0.281-0.672 0.438-1.062 0.438s-0.781-0.156-1.062-0.438l-7.781-7.781c-0.281-0.281-0.438-0.672-0.438-1.062s0.156-0.781 0.438-1.062l2.125-2.125c0.281-0.281 0.672-0.438 1.062-0.438s0.781 0.156 1.062 0.438l4.594 4.609 10.25-10.266c0.281-0.281 0.672-0.438 1.062-0.438s0.781 0.156 1.062 0.438l2.125 2.125c0.281 0.281 0.438 0.672 0.438 1.062z"></path>
</symbol>
<symbol id="icon-close" viewBox="0 0 22 28">
<path d="M20.281 20.656c0 0.391-0.156 0.781-0.438 1.062l-2.125 2.125c-0.281 0.281-0.672 0.438-1.062 0.438s-0.781-0.156-1.062-0.438l-4.594-4.594-4.594 4.594c-0.281 0.281-0.672 0.438-1.062 0.438s-0.781-0.156-1.062-0.438l-2.125-2.125c-0.281-0.281-0.438-0.672-0.438-1.062s0.156-0.781 0.438-1.062l4.594-4.594-4.594-4.594c-0.281-0.281-0.438-0.672-0.438-1.062s0.156-0.781 0.438-1.062l2.125-2.125c0.281-0.281 0.672-0.438 1.062-0.438s0.781 0.156 1.062 0.438l4.594 4.594 4.594-4.594c0.281-0.281 0.672-0.438 1.062-0.438s0.781 0.156 1.062 0.438l2.125 2.125c0.281 0.281 0.438 0.672 0.438 1.062s-0.156 0.781-0.438 1.062l-4.594 4.594 4.594 4.594c0.281 0.281 0.438 0.672 0.438 1.062z"></path>
</symbol>
<symbol id="icon-twitter" viewBox="0 0 26 28">
<path d="M25.312 6.375c-0.688 1-1.547 1.891-2.531 2.609 0.016 0.219 0.016 0.438 0.016 0.656 0 6.672-5.078 14.359-14.359 14.359-2.859 0-5.516-0.828-7.75-2.266 0.406 0.047 0.797 0.063 1.219 0.063 2.359 0 4.531-0.797 6.266-2.156-2.219-0.047-4.078-1.5-4.719-3.5 0.313 0.047 0.625 0.078 0.953 0.078 0.453 0 0.906-0.063 1.328-0.172-2.312-0.469-4.047-2.5-4.047-4.953v-0.063c0.672 0.375 1.453 0.609 2.281 0.641-1.359-0.906-2.25-2.453-2.25-4.203 0-0.938 0.25-1.797 0.688-2.547 2.484 3.062 6.219 5.063 10.406 5.281-0.078-0.375-0.125-0.766-0.125-1.156 0-2.781 2.25-5.047 5.047-5.047 1.453 0 2.766 0.609 3.687 1.594 1.141-0.219 2.234-0.641 3.203-1.219-0.375 1.172-1.172 2.156-2.219 2.781 1.016-0.109 2-0.391 2.906-0.781z"></path>
</symbol>
<symbol id="icon-facebook" viewBox="0 0 16 28">
<path d="M14.984 0.187v4.125h-2.453c-1.922 0-2.281 0.922-2.281 2.25v2.953h4.578l-0.609 4.625h-3.969v11.859h-4.781v-11.859h-3.984v-4.625h3.984v-3.406c0-3.953 2.422-6.109 5.953-6.109 1.687 0 3.141 0.125 3.563 0.187z"></path>
</symbol>
<symbol id="icon-youtube-play" viewBox="0 0 28 28">
<path d="M11.109 17.625l7.562-3.906-7.562-3.953v7.859zM14 4.156c5.891 0 9.797 0.281 9.797 0.281 0.547 0.063 1.75 0.063 2.812 1.188 0 0 0.859 0.844 1.109 2.781 0.297 2.266 0.281 4.531 0.281 4.531v2.125s0.016 2.266-0.281 4.531c-0.25 1.922-1.109 2.781-1.109 2.781-1.062 1.109-2.266 1.109-2.812 1.172 0 0-3.906 0.297-9.797 0.297v0c-7.281-0.063-9.516-0.281-9.516-0.281-0.625-0.109-2.031-0.078-3.094-1.188 0 0-0.859-0.859-1.109-2.781-0.297-2.266-0.281-4.531-0.281-4.531v-2.125s-0.016-2.266 0.281-4.531c0.25-1.937 1.109-2.781 1.109-2.781 1.062-1.125 2.266-1.125 2.812-1.188 0 0 3.906-0.281 9.797-0.281v0z"></path>
</symbol>
<symbol id="icon-instagram" viewBox="0 0 24 28">
<path d="M16 14c0-2.203-1.797-4-4-4s-4 1.797-4 4 1.797 4 4 4 4-1.797 4-4zM18.156 14c0 3.406-2.75 6.156-6.156 6.156s-6.156-2.75-6.156-6.156 2.75-6.156 6.156-6.156 6.156 2.75 6.156 6.156zM19.844 7.594c0 0.797-0.641 1.437-1.437 1.437s-1.437-0.641-1.437-1.437 0.641-1.437 1.437-1.437 1.437 0.641 1.437 1.437zM12 4.156c-1.75 0-5.5-0.141-7.078 0.484-0.547 0.219-0.953 0.484-1.375 0.906s-0.688 0.828-0.906 1.375c-0.625 1.578-0.484 5.328-0.484 7.078s-0.141 5.5 0.484 7.078c0.219 0.547 0.484 0.953 0.906 1.375s0.828 0.688 1.375 0.906c1.578 0.625 5.328 0.484 7.078 0.484s5.5 0.141 7.078-0.484c0.547-0.219 0.953-0.484 1.375-0.906s0.688-0.828 0.906-1.375c0.625-1.578 0.484-5.328 0.484-7.078s0.141-5.5-0.484-7.078c-0.219-0.547-0.484-0.953-0.906-1.375s-0.828-0.688-1.375-0.906c-1.578-0.625-5.328-0.484-7.078-0.484zM24 14c0 1.656 0.016 3.297-0.078 4.953-0.094 1.922-0.531 3.625-1.937 5.031s-3.109 1.844-5.031 1.937c-1.656 0.094-3.297 0.078-4.953 0.078s-3.297 0.016-4.953-0.078c-1.922-0.094-3.625-0.531-5.031-1.937s-1.844-3.109-1.937-5.031c-0.094-1.656-0.078-3.297-0.078-4.953s-0.016-3.297 0.078-4.953c0.094-1.922 0.531-3.625 1.937-5.031s3.109-1.844 5.031-1.937c1.656-0.094 3.297-0.078 4.953-0.078s3.297-0.016 4.953 0.078c1.922 0.094 3.625 0.531 5.031 1.937s1.844 3.109 1.937 5.031c0.094 1.656 0.078 3.297 0.078 4.953z"></path>
</symbol>
<symbol id="icon-apple" viewBox="0 0 22 28">
<path d="M21.766 18.984c-0.391 1.234-1.016 2.547-1.922 3.906-1.344 2.047-2.688 3.063-4.016 3.063-0.531 0-1.25-0.172-2.188-0.5-0.922-0.344-1.719-0.5-2.359-0.5-0.625 0-1.375 0.172-2.219 0.516-0.859 0.359-1.547 0.531-2.063 0.531-1.609 0-3.156-1.359-4.703-4.047-1.516-2.688-2.297-5.297-2.297-7.859 0-2.391 0.594-4.328 1.766-5.844 1.172-1.5 2.641-2.25 4.438-2.25 0.766 0 1.672 0.156 2.766 0.469 1.078 0.313 1.797 0.469 2.156 0.469 0.453 0 1.203-0.172 2.234-0.531 1.031-0.344 1.937-0.531 2.703-0.531 1.25 0 2.359 0.344 3.328 1.016 0.547 0.375 1.094 0.906 1.625 1.563-0.812 0.688-1.406 1.297-1.781 1.844-0.672 0.969-1.016 2.047-1.016 3.234 0 1.281 0.359 2.453 1.078 3.484s1.547 1.687 2.469 1.969zM15.891 0.656c0 0.641-0.156 1.359-0.453 2.125-0.313 0.781-0.797 1.5-1.453 2.156-0.562 0.562-1.125 0.938-1.687 1.125-0.359 0.109-0.891 0.203-1.625 0.266 0.031-1.547 0.438-2.891 1.219-4.016s2.094-1.891 3.906-2.312c0.031 0.141 0.063 0.25 0.078 0.344 0 0.109 0.016 0.203 0.016 0.313z"></path>
</symbol>
<symbol id="icon-windows" viewBox="0 0 26 28">
<path d="M10.656 15.719v10.172l-10.656-1.469v-8.703h10.656zM10.656 4.109v10.297h-10.656v-8.828zM26 15.719v12.281l-14.172-1.953v-10.328h14.172zM26 2v12.406h-14.172v-10.453z"></path>
</symbol>
<symbol id="icon-android" viewBox="0 0 22 28">
<path d="M7.703 7.547c0.344 0 0.609-0.281 0.609-0.609s-0.266-0.609-0.609-0.609c-0.328 0-0.594 0.281-0.594 0.609s0.266 0.609 0.594 0.609zM14.297 7.547c0.328 0 0.594-0.281 0.594-0.609s-0.266-0.609-0.594-0.609c-0.344 0-0.609 0.281-0.609 0.609s0.266 0.609 0.609 0.609zM1.609 10.422c0.875 0 1.594 0.719 1.594 1.594v6.719c0 0.891-0.703 1.609-1.594 1.609s-1.609-0.719-1.609-1.609v-6.719c0-0.875 0.719-1.594 1.609-1.594zM18.172 10.719v10.406c0 0.953-0.766 1.719-1.703 1.719h-1.172v3.547c0 0.891-0.719 1.609-1.609 1.609s-1.609-0.719-1.609-1.609v-3.547h-2.156v3.547c0 0.891-0.719 1.609-1.609 1.609-0.875 0-1.594-0.719-1.594-1.609l-0.016-3.547h-1.156c-0.953 0-1.719-0.766-1.719-1.719v-10.406h14.344zM14.547 4.391c2.188 1.125 3.672 3.281 3.672 5.766h-14.453c0-2.484 1.484-4.641 3.687-5.766l-1.109-2.047c-0.063-0.109-0.031-0.25 0.078-0.313 0.109-0.047 0.25-0.016 0.313 0.094l1.125 2.063c0.953-0.422 2.016-0.656 3.141-0.656s2.188 0.234 3.141 0.656l1.125-2.063c0.063-0.109 0.203-0.141 0.313-0.094 0.109 0.063 0.141 0.203 0.078 0.313zM22 12.016v6.719c0 0.891-0.719 1.609-1.609 1.609-0.875 0-1.594-0.719-1.594-1.609v-6.719c0-0.891 0.719-1.594 1.594-1.594 0.891 0 1.609 0.703 1.609 1.594z"></path>
</symbol>
<symbol id="icon-bars" viewBox="0 0 24 28">
<path d="M24 21v2c0 0.547-0.453 1-1 1h-22c-0.547 0-1-0.453-1-1v-2c0-0.547 0.453-1 1-1h22c0.547 0 1 0.453 1 1zM24 13v2c0 0.547-0.453 1-1 1h-22c-0.547 0-1-0.453-1-1v-2c0-0.547 0.453-1 1-1h22c0.547 0 1 0.453 1 1zM24 5v2c0 0.547-0.453 1-1 1h-22c-0.547 0-1-0.453-1-1v-2c0-0.547 0.453-1 1-1h22c0.547 0 1 0.453 1 1z"></path>
</symbol>
<symbol id="icon-drivers-license" viewBox="0 0 32 28">
<path d="M14 18.937c0-2.063-0.5-4.438-2.562-4.438-0.625 0.625-1.484 1-2.438 1s-1.813-0.375-2.438-1c-2.063 0-2.562 2.375-2.562 4.438 0 1.141 0.75 2.063 1.672 2.063h6.656c0.922 0 1.672-0.922 1.672-2.063zM12 12c0-1.656-1.344-3-3-3s-3 1.344-3 3 1.344 3 3 3 3-1.344 3-3zM28 19.5v-1c0-0.281-0.219-0.5-0.5-0.5h-11c-0.281 0-0.5 0.219-0.5 0.5v1c0 0.281 0.219 0.5 0.5 0.5h11c0.281 0 0.5-0.219 0.5-0.5zM22 15.5v-1c0-0.281-0.219-0.5-0.5-0.5h-5c-0.281 0-0.5 0.219-0.5 0.5v1c0 0.281 0.219 0.5 0.5 0.5h5c0.281 0 0.5-0.219 0.5-0.5zM28 15.5v-1c0-0.281-0.219-0.5-0.5-0.5h-3c-0.281 0-0.5 0.219-0.5 0.5v1c0 0.281 0.219 0.5 0.5 0.5h3c0.281 0 0.5-0.219 0.5-0.5zM28 11.5v-1c0-0.281-0.219-0.5-0.5-0.5h-11c-0.281 0-0.5 0.219-0.5 0.5v1c0 0.281 0.219 0.5 0.5 0.5h11c0.281 0 0.5-0.219 0.5-0.5zM2 6h28v-1.5c0-0.281-0.219-0.5-0.5-0.5h-27c-0.281 0-0.5 0.219-0.5 0.5v1.5zM32 4.5v19c0 1.375-1.125 2.5-2.5 2.5h-27c-1.375 0-2.5-1.125-2.5-2.5v-19c0-1.375 1.125-2.5 2.5-2.5h27c1.375 0 2.5 1.125 2.5 2.5z"></path>
</symbol>
<symbol id="icon-gmail" viewBox="0 0 32 32">
<path fill="#d14836" style="fill: var(--color3, #d14836)" d="M32 6v20c0 1.133-0.867 2-2 2h-2v-18.151l-12 8.617-12-8.617v18.151h-2c-1.135 0-2-0.867-2-2v-20c0-0.567 0.216-1.067 0.575-1.424 0.359-0.363 0.86-0.576 1.425-0.576h0.667l13.333 9.667 13.333-9.667h0.667c0.567 0 1.067 0.216 1.425 0.576 0.36 0.357 0.575 0.857 0.575 1.424z"></path>
</symbol>
<symbol id="icon-phone" viewBox="0 0 32 32">
<path d="M22 20c-2 2-2 4-4 4s-4-2-6-4-4-4-4-6 2-2 4-4-4-8-6-8-6 6-6 6c0 4 4.109 12.109 8 16s12 8 16 8c0 0 6-4 6-6s-6-8-8-6z"></path>
</symbol>
<symbol id="icon-location" viewBox="0 0 32 32">
<path d="M16 0c-5.523 0-10 4.477-10 10 0 10 10 22 10 22s10-12 10-22c0-5.523-4.477-10-10-10zM16 16c-3.314 0-6-2.686-6-6s2.686-6 6-6 6 2.686 6 6-2.686 6-6 6z"></path>
</symbol>
</defs>
</svg>
